<?xml version="1.0" encoding="iso-8859-1"?>
<!-- Uploaded to: SVG Repo, www.svgrepo.com, Generator: SVG Repo Mixer Tools -->
<svg version="1.1" id="Layer_1" xmlns="http://www.w3.org/2000/svg" xmlns:xlink="http://www.w3.org/1999/xlink" 
	 viewBox="0 0 512 512" xml:space="preserve">
<polygon style="fill:#E2804F;" points="504.147,215.976 288.02,215.976 256.001,231.986 223.98,215.976 7.853,215.976 7.853,7.853 
	504.147,7.853 "/>
<rect x="71.896" y="39.875" style="fill:#D4E4AC;" width="80.042" height="32.019"/>
<rect x="71.896" y="95.906" style="fill:#FFFFFF;" width="128.074" height="32.019"/>
<rect x="71.896" y="151.938" style="fill:#F2BF7E;" width="48.029" height="32.019"/>
<circle style="fill:#FFFFFF;" cx="364.065" cy="107.917" r="68.04"/>
<path style="fill:#D4E4AC;" d="M296.024,111.474h72.041V39.872C368.065,39.872,297.625,36.081,296.024,111.474z"/>
<g>
	<polygon style="fill:#F2BF7E;" points="344.052,312.033 344.052,504.147 167.948,504.147 167.948,264.005 296.024,264.005 	"/>
	<polyline style="fill:#F2BF7E;" points="295.813,263.307 295.813,319.852 343.981,319.852 	"/>
</g>
<polyline style="fill:#D4E4AC;" points="295.813,263.307 295.813,319.852 343.981,319.852 "/>
<path d="M299.277,256.151H160.095V512h191.811V308.781L299.277,256.151z M303.143,282.23l30.291,30.292h-30.291V282.23z
	 M175.802,496.293V271.858h111.634v56.371h48.762v168.064L175.802,496.293L175.802,496.293z"/>
<path d="M256.001,240.766l-33.875-16.936H0V0h512v223.83H289.874L256.001,240.766z M15.707,208.123h210.127l30.167,15.083
	l30.167-15.083h210.127V15.707H15.707V208.123z"/>
<path d="M159.793,79.745H64.037V32.019h95.755v47.726H159.793z M79.744,64.038h64.341V47.726H79.744V64.038z"/>
<path d="M207.82,135.778H64.037V88.052H207.82V135.778z M79.744,120.071h112.369v-16.312H79.744V120.071z"/>
<path d="M127.773,191.812H64.037v-47.726h63.735V191.812z M79.744,176.105h32.322v-16.312H79.744V176.105z"/>
<rect x="39.267" y="31.892" style="fill:#FFFFFF;" width="15.707" height="160.21"/>
<path d="M435.358,176.396l-16.284-16.28c12.927-13.615,20.885-31.992,20.885-52.203c0-41.847-34.046-75.894-75.895-75.894
	c-20.2,0-38.568,7.949-52.18,20.863l-12.604-12.613h-67.341v15.707h60.831l8.858,8.863c-8.475,12.246-13.457,27.086-13.457,43.074
	c0,41.848,34.046,75.895,75.894,75.895c15.976,0,30.806-4.974,43.048-13.438l21.739,21.734h51.256v-15.707h-44.75V176.396z
	 M330.469,93.698l11.109-11.104l-18.597-18.608c9.525-8.913,21.932-14.771,35.66-16.003v56.162h-54.634
	c0.635-10.218,3.828-19.751,8.95-27.968L330.469,93.698z M364.064,168.099c-29.101,0-53.439-20.761-58.993-48.248h69.277V48.623
	c28.303,4.895,49.903,29.61,49.903,59.289c0,15.882-6.195,30.337-16.281,41.104l-18.354-18.349l-11.105,11.107l17.265,17.261
	C386.56,164.773,375.695,168.099,364.064,168.099z"/>
<rect x="448.694" y="152.315" style="fill:#FFFFFF;" width="31.414" height="15.707"/>
<rect x="464.401" y="129.278" width="15.707" height="15.707"/>
<rect x="231.939" y="64.356" style="fill:#FFFFFF;" width="40.838" height="15.707"/>
<rect x="231.939" y="87.393" width="16.754" height="15.707"/>
<rect x="200.525" y="296.819" width="72.252" height="15.707"/>
<rect x="200.525" y="328.232" width="79.582" height="15.707"/>
<rect x="200.525" y="359.646" width="110.995" height="15.707"/>
<rect x="200.525" y="393.154" width="110.995" height="15.707"/>
<rect x="200.525" y="424.568" width="110.995" height="15.707"/>
<rect x="200.525" y="457.029" width="110.995" height="15.707"/>
</svg>